<svg xmlns="http://www.w3.org/2000/svg" viewBox="0 0 32 32"><path d="m28.73 10-2.94-6.26A3.08 3.08 0 0 0 23 2H8.77A3.09 3.09 0 0 0 6 3.74L3.3 9.42a3.12 3.12 0 0 0 .2 3A3.35 3.35 0 0 0 6.37 14a6.54 6.54 0 0 0 3.17-.82 6.65 6.65 0 0 0 3.17.82 6.51 6.51 0 0 0 3.17-.82 6.65 6.65 0 0 0 3.17.82 6.51 6.51 0 0 0 3.17-.82 6.74 6.74 0 0 0 2.78.87v13.59a.36.36 0 0 1-.36.36H17v-9h5v6a1 1 0 0 0 2 0v-6.27A1.72 1.72 0 0 0 22.27 17h-5.54A1.72 1.72 0 0 0 15 18.73V28H7.36a.36.36 0 0 1-.36-.36V17a1 1 0 0 0-2 0v10.64A2.36 2.36 0 0 0 7.36 30h17.28A2.36 2.36 0 0 0 27 27.64V14a.53.53 0 0 0 0-.12 2.91 2.91 0 0 0 1.73-1.45 2.73 2.73 0 0 0 0-2.43zm-1.81 1.53a1 1 0 0 1-.67.49 4.5 4.5 0 0 1-3.43-.83 1 1 0 0 0-.6-.19 1 1 0 0 0-.57.18 4.49 4.49 0 0 1-2.6.82 4.53 4.53 0 0 1-2.59-.82 1 1 0 0 0-1.16 0 4.45 4.45 0 0 1-2.59.82 4.53 4.53 0 0 1-2.59-.82 1 1 0 0 0-1.16 0 4.48 4.48 0 0 1-2.59.82 1.39 1.39 0 0 1-1.19-.62 1.15 1.15 0 0 1-.07-1.11l2.67-5.68a1.08 1.08 0 0 1 1-.59H23a1.07 1.07 0 0 1 1 .59l2.94 6.26a.78.78 0 0 1-.02.68z"/><path d="M12.31 23A1.69 1.69 0 0 0 14 21.31v-2.62A1.69 1.69 0 0 0 12.31 17H9.69A1.69 1.69 0 0 0 8 18.69v2.62A1.69 1.69 0 0 0 9.69 23zM10 19h2v2h-2z"/></svg>